<svg width="255" height="220" viewBox="0 0 255 220" fill="none" xmlns="http://www.w3.org/2000/svg">
<rect width="255" height="220" rx="14.0157" fill="#F8F8FA"/>
<g clip-path="url(#clip0_33_6991)">
<path fill-rule="evenodd" clip-rule="evenodd" d="M127 43C164.003 43 194 72.9968 194 110C194 147.003 164.003 177 127 177C89.9968 177 60 147.003 60 110C60 72.9968 89.9968 43 127 43Z" fill="#2775CA"/>
<path fill-rule="evenodd" clip-rule="evenodd" d="M142.309 62.8225C140.798 62.3399 139.563 63.2366 139.563 64.8228V68.7238C139.563 69.7874 140.364 70.9978 141.363 71.3638C157.399 77.2375 168.875 92.6517 168.875 110.698C168.875 128.744 157.399 144.158 141.363 150.032C140.268 150.433 139.563 151.506 139.563 152.672V156.573C139.563 158.159 140.798 159.056 142.309 158.573C162.575 152.098 177.25 133.112 177.25 110.698C177.25 88.2841 162.575 69.2976 142.309 62.8225ZM114.438 64.8228C114.438 63.2366 113.202 62.3399 111.691 62.8225C91.4251 69.2976 76.75 88.2838 76.75 110.698C76.75 133.112 91.4251 152.098 111.691 158.573C113.202 159.056 114.438 158.159 114.438 156.573V152.672C114.438 151.609 113.636 150.398 112.637 150.032C96.6009 144.158 85.125 128.744 85.125 110.698C85.125 92.652 96.6009 77.2375 112.637 71.3638C113.636 70.9978 114.438 69.7874 114.438 68.7238V64.8228ZM129.094 77.1981H124.906C123.75 77.1981 122.813 78.1353 122.813 79.2916V85.7783C114.511 86.9585 109.145 92.483 109.145 99.5703C109.145 108.744 114.69 112.304 126.396 113.879C134.337 115.18 136.598 116.89 136.598 121.409C136.598 125.927 132.762 128.94 127.355 128.94C120.045 128.94 117.639 125.741 116.752 121.6C116.542 120.619 115.702 119.902 114.699 119.902H109.922C108.719 119.902 107.779 120.986 107.985 122.171C109.202 129.14 113.678 134.254 122.813 135.493V142.104C122.813 143.261 123.75 144.198 124.906 144.198H129.094C130.25 144.198 131.188 143.261 131.188 142.104V135.49C139.835 134.116 145.36 128.096 145.36 120.656C145.36 110.866 139.404 107.58 127.902 106.006C119.413 104.773 117.771 102.788 117.771 98.8167C117.771 95.0524 120.646 92.3813 126.191 92.3813C131.207 92.3813 134.092 94.132 135.284 98.1688C135.55 99.0698 136.356 99.7067 137.295 99.7067H141.7C142.928 99.7067 143.884 98.5779 143.622 97.3777C142.228 90.9982 137.928 87.1701 131.188 85.9625V79.2916C131.188 78.1353 130.25 77.1981 129.094 77.1981Z" fill="white"/>
</g>
<defs>
<clipPath id="clip0_33_6991">
<rect width="134" height="134" fill="white" transform="translate(60 43)"/>
</clipPath>
</defs>
</svg>
